<?xml version="1.0" encoding="UTF-8" standalone="no"?>
<!-- Created with Inkscape (http://www.inkscape.org/) -->

<svg
   width="33mm"
   height="30mm"
   viewBox="0 0 33 30"
   version="1.1"
   id="svg1"
   xmlns="http://www.w3.org/2000/svg"
   xmlns:svg="http://www.w3.org/2000/svg">
  <defs
     id="defs1" />
  <g
     id="layer1">
    <g
       id="g19"
       transform="translate(-17.322656,-14.289002)">
      <text
         xml:space="preserve"
         style="font-size:11.4167px;font-family:Calibri;-inkscape-font-specification:'Calibri, Normal';fill:#000000;fill-opacity:1;stroke:none;stroke-width:0.0529167;stroke-linecap:round;stroke-opacity:1"
         x="25.992279"
         y="24.84556"
         id="text1"><tspan
           id="tspan1"
           style="fill:#000000;fill-opacity:1;stroke:none;stroke-width:0.0529167;stroke-opacity:1"
           x="25.992279"
           y="24.84556">🪨</tspan></text>
      <path
         style="fill:#d3d3d3;fill-opacity:1;stroke:none;stroke-width:0.244206;stroke-linecap:round;stroke-dasharray:none;stroke-opacity:1"
         d="m 125.20324,87.399897 -3.38387,-3.420089 v -2.980757 c 0,-2.718738 0.16814,-3.790612 1.91282,-12.193752 1.05206,-5.067148 1.97823,-9.318819 2.05817,-9.448159 0.24822,-0.401628 1.21363,-0.26311 3.4612,0.496618 4.51016,1.52453 4.59311,1.650819 3.82599,5.824948 -0.30529,1.661146 -1.52672,6.24639 -2.71429,10.189431 -1.18758,3.943041 -2.15923,7.440667 -2.15923,7.772503 0,0.331837 0.24192,1.103079 0.5376,1.713872 0.50226,1.037528 0.74643,1.21071 3.71442,2.634495 1.74726,0.838182 3.30964,1.523966 3.47197,1.523966 0.18318,0 0.20311,0.08463 0.0525,0.223077 -0.13344,0.122696 -1.50678,0.356847 -3.05187,0.520338 -1.54509,0.163493 -3.15402,0.357186 -3.57541,0.430431 -0.70565,0.122652 -1.03342,-0.136946 -4.15003,-3.286922 z"
         id="path10"
         transform="scale(0.26458333)" />
      <path
         style="fill:#e6e6e6;fill-opacity:1;stroke:none;stroke-width:0.244206;stroke-linecap:round;stroke-dasharray:none;stroke-opacity:1"
         d="m 136.3764,87.811962 c -5.03219,-2.288 -6.38466,-3.150413 -6.38466,-4.071226 0,-0.361552 3.24568,-11.349448 3.39725,-11.501018 0.0397,-0.03966 2.64468,0.993576 5.78893,2.296082 3.97209,1.645439 5.77926,2.519095 5.9214,2.86264 0.11251,0.271946 0.58965,2.523427 1.0603,5.003292 l 0.85573,4.508846 -2.05827,1.463588 c -1.13205,0.804973 -2.34785,1.543376 -2.70177,1.640894 -0.49805,0.137232 -1.82678,-0.360706 -5.87891,-2.203098 z"
         id="path11"
         transform="scale(0.26458333)" />
      <path
         style="fill:#9b9b9b;fill-opacity:1;stroke:none;stroke-width:0.244206;stroke-linecap:round;stroke-dasharray:none;stroke-opacity:1"
         d="m 118.32264,72.727286 -1.81818,-3.992317 3.35463,-3.513413 c 1.84505,-1.932377 3.38619,-3.481864 3.42475,-3.443304 0.0765,0.07652 -2.95527,14.753612 -3.07162,14.869969 -0.0393,0.03926 -0.88957,-1.72516 -1.88958,-3.920935 z"
         id="path12"
         transform="scale(0.26458333)" />
      <path
         style="fill:#9b9b9b;fill-opacity:1;stroke:none;stroke-width:0.244206;stroke-linecap:round;stroke-dasharray:none;stroke-opacity:1"
         d="m 137.56563,71.9385 c -1.94448,-0.804786 -3.53643,-1.549083 -3.53768,-1.653994 -0.007,-0.555815 0.93149,-5.033214 1.0545,-5.033 0.0796,1.38e-4 0.64299,0.94826 1.25201,2.106938 0.85529,1.627232 1.58183,2.555799 3.19233,4.080045 1.14677,1.085346 1.97011,1.971084 1.82964,1.968307 -0.14046,-0.0028 -1.84632,-0.66351 -3.7908,-1.468296 z"
         id="path13"
         transform="scale(0.26458333)" />
      <path
         style="fill:#636363;fill-opacity:1;stroke:none;stroke-width:0.0610515;stroke-linecap:round;stroke-dasharray:none;stroke-opacity:1"
         d="m 108.41157,86.327862 c 0,-0.310917 0.53116,-3.895428 0.61469,-4.148233 0.0564,-0.170619 0.71097,-1.434782 1.45465,-2.809252 1.17162,-2.165396 1.53503,-2.911889 2.722,-5.591386 1.24576,-2.812199 1.39883,-3.123689 1.6896,-3.438281 l 0.31974,-0.345932 1.52589,3.359078 c 0.83924,1.847492 1.51419,3.368705 1.49989,3.380473 -0.0143,0.01177 -1.14651,0.691288 -2.51602,1.510045 -2.96799,1.774405 -3.30913,2.00255 -3.80731,2.546231 -0.63431,0.692231 -0.87618,1.272029 -1.40138,3.359251 -0.2474,0.983238 -0.47784,1.895447 -0.51209,2.027131 l -0.0623,0.239424 h -0.7637 c -0.6086,0 -0.7637,-0.01798 -0.7637,-0.08855 z"
         id="path14"
         transform="scale(0.26458333)" />
      <path
         style="fill:#9b9b9b;fill-opacity:1;stroke:none;stroke-width:0.0610515;stroke-linecap:round;stroke-dasharray:none;stroke-opacity:1"
         d="m 119.40454,90.18195 c -4.471,-1.221638 -8.14514,-2.237209 -8.16475,-2.256824 -0.0196,-0.01962 0.24231,-1.135654 0.58207,-2.480086 0.45197,-1.788491 0.67878,-2.570484 0.84525,-2.914207 0.40178,-0.829602 0.57157,-0.955781 4.23607,-3.148176 l 3.2881,-1.967204 0.0338,3.494895 c 0.036,3.718624 0.0253,3.589704 0.35046,4.237834 0.0593,0.118118 1.69182,1.802147 3.62791,3.742286 1.9361,1.94014 3.47743,3.524178 3.42518,3.520084 -0.0522,-0.0041 -3.75308,-1.006964 -8.22409,-2.228602 z"
         id="path15"
         transform="scale(0.26458333)" />
      <path
         style="fill:#636363;fill-opacity:1;stroke:none;stroke-width:0.0610515;stroke-linecap:round;stroke-dasharray:none;stroke-opacity:1"
         d="m 120.2232,98.478459 c -0.61553,-0.07805 -1.56317,-0.306193 -2.11503,-0.509201 -0.89057,-0.327614 -3.69714,-1.746952 -4.30126,-2.175236 -0.66038,-0.468175 -2.77839,-2.5144 -3.39533,-3.280258 -0.54912,-0.681675 -1.00631,-1.445966 -1.37491,-2.298478 l -0.30366,-0.702313 1.04953,-0.01749 1.04953,-0.01749 7.52078,2.047648 c 4.13643,1.126207 7.61415,2.077246 7.72828,2.113421 l 0.2075,0.06577 v 2.42122 2.421221 l -2.82521,-0.0081 c -1.55387,-0.0045 -3.01197,-0.03177 -3.24022,-0.06072 z"
         id="path16"
         transform="scale(0.26458333)" />
      <path
         style="fill:#9b9b9b;fill-opacity:1;stroke:none;stroke-width:0.0610515;stroke-linecap:round;stroke-dasharray:none;stroke-opacity:1"
         d="m 129.41712,96.167577 v -2.382553 l 6.84755,-1.072131 c 3.76615,-0.589672 6.91114,-1.086856 6.98886,-1.104852 0.0777,-0.018 1.04021,-0.672398 2.13886,-1.454225 1.18365,-0.842314 2.01509,-1.394194 2.04059,-1.354476 0.0237,0.03687 0.0777,0.300003 0.12007,0.584749 0.0659,0.442865 0.0624,0.568078 -0.0243,0.865999 -0.0557,0.191553 -0.16723,0.437377 -0.24776,0.546276 -0.0805,0.108899 -1.33875,1.556471 -2.79605,3.216826 -1.4573,1.660356 -2.69704,3.09032 -2.75498,3.177698 -0.2365,0.356658 -0.90693,0.926843 -1.31975,1.122421 l -0.42646,0.202038 -5.28331,0.01739 -5.2833,0.01739 z"
         id="path17"
         transform="scale(0.26458333)" />
    </g>
    <g
       id="g18"
       transform="translate(-37.652205,-12.408479)">
      <text
         xml:space="preserve"
         style="font-size:11.4167px;font-family:Calibri;-inkscape-font-specification:'Calibri, Normal';fill:#000000;fill-opacity:1;stroke:none;stroke-width:0.253;stroke-linecap:round;stroke-dasharray:none;stroke-opacity:1"
         x="34.776024"
         y="40.220211"
         id="text17"><tspan
           id="tspan17"
           style="stroke-width:0.253"
           x="34.776024"
           y="40.220211">📄</tspan></text>
      <path
         style="fill:#c8c8c8;fill-opacity:1;stroke:none;stroke-width:0.244206;stroke-linecap:round;stroke-dasharray:none;stroke-opacity:1"
         d="m 146.50375,155.9572 c -0.38524,-0.42567 -0.42266,-2.13184 -0.42266,-19.2672 v -18.80016 l 0.56759,-0.39756 c 0.48928,-0.3427 1.89188,-0.39756 10.16439,-0.39756 7.12365,0 9.67576,0.079 9.90325,0.30646 0.21075,0.21075 0.30646,1.48692 0.30646,4.08618 0,5.03518 -0.23391,4.80127 4.80127,4.80127 2.59926,0 3.87543,0.0957 4.08618,0.30646 0.23104,0.23104 0.30646,3.81378 0.30646,14.55704 0,13.91005 -0.0122,14.26277 -0.51077,14.76134 -0.49847,0.49846 -0.85129,0.51077 -14.64514,0.51077 -13.36881,0 -14.15726,-0.0253 -14.55703,-0.46704 z m 17.67032,-10.62539 c 0.20199,-1.05013 -0.48275,-1.16612 -6.8839,-1.16612 -3.33277,0 -6.24136,0.0697 -6.46355,0.15501 -0.40422,0.15512 -0.55808,1.13806 -0.22956,1.46658 0.0959,0.0959 3.16862,0.14381 6.82821,0.10642 6.34658,-0.0649 6.65818,-0.0908 6.7488,-0.56189 z m 7.57477,-4.23305 c 0.0876,-0.14172 0.0862,-0.48776 -0.003,-0.76897 -0.15933,-0.50202 -0.35329,-0.5101 -10.67887,-0.44465 l -10.51659,0.0667 -0.0808,0.70231 -0.0808,0.70231 h 10.60043 c 6.85415,0 10.65671,-0.0911 10.75968,-0.25767 z m -0.27431,-4.42259 c 0.32466,-0.2374 0.41023,-0.50556 0.28609,-0.89667 l -0.17709,-0.55798 -10.51659,0.0667 -10.51659,0.0667 -0.0862,0.60959 c -0.0474,0.33527 0.0675,0.70701 0.25539,0.82609 0.18786,0.11908 4.83037,0.21827 10.31668,0.22042 7.88752,0.003 10.07205,-0.067 10.4383,-0.33478 z m 0.16297,-4.66275 c 0.24361,-0.29353 0.26207,-0.52121 0.0673,-0.83001 -0.24335,-0.38578 -1.24326,-0.42552 -10.70793,-0.42552 -9.86781,0 -10.44439,0.0253 -10.52846,0.46185 -0.23619,1.22643 -0.48415,1.19817 10.51351,1.19817 9.10443,0 10.35944,-0.0476 10.65559,-0.40449 z"
         id="path18"
         transform="scale(0.26458333)" />
    </g>
    <g
       id="g32"
       transform="translate(9.723438,5.0932292)">
      <path
         d="m 17.557585,16.643945 -0.51108,0.51108 -0.02635,-0.02635 -0.286804,0.286288 c -0.138406,0.138242 -0.290752,0.293025 -0.338481,0.344165 l -0.08682,0.09302 0.02274,0.02274 -0.278019,0.278019 -0.28112,0.28112 2.781742,2.781742 2.78226,2.782259 0.04961,-0.04702 c 0.143504,-0.134603 0.545775,-0.535805 0.594796,-0.593246 0.126365,-0.148069 0.245087,-0.358405 0.306441,-0.542602 0.103774,-0.311552 0.123775,-0.647117 0.05736,-0.974618 -0.05673,-0.279765 -0.175432,-0.53593 -0.350366,-0.756543 -0.02885,-0.03638 -0.64826,-0.66235 -1.376144,-1.391129 l -1.323433,-1.324984 -0.0062,0.0062 z"
         style="fill:#d3d3d3;fill-opacity:1;stroke-width:0.1;stroke-linejoin:bevel"
         id="path32" />
      <circle
         style="fill:none;fill-opacity:1;stroke:#f8312f;stroke-width:1.452;stroke-linecap:round;stroke-dasharray:none;stroke-opacity:1"
         id="path20"
         cx="14.485514"
         cy="15.342903"
         r="1.9303644" />
      <path
         style="fill:#f8312f;fill-opacity:1;stroke:none;stroke-width:0.0210462;stroke-linecap:butt;stroke-linejoin:bevel;stroke-dasharray:none;stroke-opacity:1"
         d="m 58.258423,68.332257 -0.694669,-0.687995 0.347608,-0.11515 c 1.219611,-0.404012 2.316784,-1.01802 3.330714,-1.863959 0.109381,-0.09126 0.393059,-0.360605 0.630397,-0.598548 0.803834,-0.805889 1.370488,-1.594222 1.875483,-2.609189 0.242839,-0.488071 0.331138,-0.697888 0.509835,-1.211469 l 0.125513,-0.360731 0.679093,0.690832 1.272844,1.347082 -3.376632,3.376685 c -1.857147,1.857177 -3.384537,3.376686 -3.394199,3.376686 -0.0097,0 -0.923919,-0.965848 -1.305987,-1.344244 z"
         id="path22"
         transform="scale(0.26458333)" />
      <circle
         style="fill:none;fill-opacity:1;stroke:#f8312f;stroke-width:1.452;stroke-linecap:round;stroke-dasharray:none;stroke-opacity:1"
         id="circle23"
         cx="-20.501232"
         cy="15.342903"
         r="1.9303644"
         transform="scale(-1,1)" />
      <path
         style="fill:#f8312f;fill-opacity:1;stroke:none;stroke-width:0.00556847;stroke-linecap:butt;stroke-linejoin:bevel;stroke-dasharray:none;stroke-opacity:1"
         d="m 19.572537,18.079576 0.183798,-0.182032 -0.09197,-0.03047 c -0.322689,-0.106895 -0.612983,-0.269351 -0.881252,-0.493172 -0.02894,-0.02415 -0.103997,-0.09541 -0.166792,-0.158366 -0.212681,-0.213225 -0.362608,-0.421805 -0.496222,-0.690348 -0.06425,-0.129135 -0.08761,-0.184649 -0.134894,-0.320534 l -0.03321,-0.09544 -0.179677,0.182783 -0.237555,0.348146 0.893401,0.893415 c 0.491371,0.491378 0.895492,0.893415 0.898048,0.893415 0.0026,0 0.145238,-0.247274 0.246324,-0.347396 z"
         id="path24" />
      <path
         d="m 15.717519,18.345519 c -0.0054,0 -2.522817,2.51691 -2.658368,2.65785 -0.196386,0.204195 -0.328101,0.424331 -0.403593,0.673861 -0.171273,0.566128 -0.06071,1.173288 0.293522,1.612305 0.04825,0.05979 0.374918,0.394886 0.576193,0.591178 l 0.123506,0.120923 0.13746,-0.133842 c 0.07557,-0.07334 0.93312,-0.929299 1.905826,-1.90221 l 1.824827,-1.825343 -0.282153,-0.282153 -0.281637,-0.282154 -0.01499,0.01499 -0.336414,-0.335897 -0.335896,-0.334864 0.0155,-0.0155 -0.279569,-0.27957 c -0.153695,-0.15372 -0.281575,-0.279569 -0.28422,-0.279569 z"
         style="fill:#9b9b9b;fill-opacity:1;stroke-width:0.00835165;stroke-linejoin:bevel"
         id="path28" />
      <path
         style="fill:#9b9b9b;fill-opacity:1;stroke:none;stroke-width:0.0863398;stroke-linecap:round;stroke-dasharray:none;stroke-opacity:1"
         d="m 65.635038,70.928967 c -0.680125,-0.206112 -1.098604,-0.76636 -1.105301,-1.479744 -0.0053,-0.559905 0.184341,-0.954685 0.616976,-1.284672 0.332257,-0.253425 0.938202,-0.376794 1.346881,-0.274222 0.291247,0.0731 0.834391,0.546879 1.004862,0.876533 0.166455,0.321887 0.168514,1.011128 0.004,1.327383 -0.35474,0.6818 -1.169791,1.046128 -1.867385,0.834722 z"
         id="path19"
         transform="scale(0.26458333)" />
    </g>
  </g>
</svg>
